<?xml version="1.0" encoding="utf-8"?>
<!-- Generator: Adobe Illustrator 24.0.3, SVG Export Plug-In . SVG Version: 6.00 Build 0)  -->
<svg version="1.1" id="mask" xmlns="http://www.w3.org/2000/svg" xmlns:xlink="http://www.w3.org/1999/xlink" x="0px" y="0px"
	 viewBox="0 0 403.49 61.32" style="enable-background:new 0 0 403.49 61.32;" xml:space="preserve">
<style type="text/css">
	.st0{fill:none;stroke:#000000;stroke-width:8;stroke-linecap:round;stroke-linejoin:round;stroke-miterlimit:10;}
</style>
<path id="mask1" class="st0" d="M30.08,8.05c0,0-15.36-9.74-22.27,5.24c-1.43,3.1-1.91,12.15,10.6,15.84s12.15,13.22,11.67,14.29
	c-0.48,1.07,1.55,5.84-6.79,11.2S4,52.83,4,52.83"/>
<path id="mask2" class="st0" d="M45.59,4c0,0-0.4,53.38,0,53.32"/>
<path id="mask3" class="st0" d="M96.05,7.93c0,0-13.57-6.26-27.14,3.04s-6.55,31.6-6.55,31.6s2.09,7.31,10.53,11.2
	s18.5,1.33,18.5,1.33s4.46-1.33,4.65-1.9c0.19-0.57-0.09-21.74,0.48-21.55S81.1,32.3,81,32.78"/>
<path id="mask4" class="st0" d="M111.24,57.32c0,0-0.35-53.29,0-53.32c0.35-0.03,32,52.86,32.27,52.86c0.28,0,0.07-53.04,0-52.86"/>
<path id="mask5" class="st0" d="M199.11,7.79c0,0-11.31-5.14-18.88,0.28c-7.57,5.41-3.12,13.88-3.12,13.88s4.23,7.02,12.35,8.71
	c8.12,1.7,9.23,8.71,9.23,8.71s2.71,8.33-3.89,14.09s-22.07-0.69-22.07-0.69"/>
<path id="mask6" class="st0" d="M232.08,5.59c0,0-18.6-1.98-20.61,25.13s22.35,25.13,22.35,25.13s18.6-3.1,17.21-25.13
	C249.64,8.69,240.89,6.85,232.08,5.59z"/>
<path id="mask7" class="st0" d="M265.88,4.04c0,0-0.14,36.92,0,37.06s1.39,14.57,14.71,14.78c13.33,0.21,15.62-12.9,15.62-12.9
	s0.83-4.03,0.9-38.94"/>
<path id="mask8" class="st0" d="M314.26,57.32c0,0-0.56-53.42,0-53.28c0.56,0.14,32.14,53.47,32.34,53.28s0.35-53.14,0-53.28"/>
<path id="mask9" class="st0" d="M363.88,6.89c0,0-0.42,48.52,0,48.52s24.5,5.48,32.76-13.26c8.26-18.74-4.1-30.61-4.1-30.61
	S383.94,3.35,363.88,6.89z"/>
</svg>
