<?xml version="1.0" encoding="utf-8"?>
<!-- Generator: Adobe Illustrator 24.0.3, SVG Export Plug-In . SVG Version: 6.00 Build 0)  -->
<svg version="1.1" id="base" xmlns="http://www.w3.org/2000/svg" xmlns:xlink="http://www.w3.org/1999/xlink" x="0px" y="0px"
	 viewBox="0 0 494.5 62.8" style="enable-background:new 0 0 494.5 62.8;" xml:space="preserve">
<style type="text/css">
	.st0{fill:#B03223;}
</style>
<g>
	<path id="base1" class="st0" d="M120,10.9c-1.5-1-4.9-2.4-9.4-2.4c-7.4,0-10.2,4.6-10.2,8.4c0,5.2,3.2,7.9,10.4,10.9
		c8.6,3.6,13,8.1,13,15.7c0,8.5-6.2,15-17.6,15c-4.8,0-10.1-1.5-12.7-3.4l1.6-4.8c2.9,1.9,7.1,3.3,11.5,3.3c7.1,0,11.3-3.8,11.3-9.6
		c0-5.2-2.9-8.5-9.8-11.3c-8-3-13.5-7.7-13.5-15.1c0-8.1,6.6-14.1,16.3-14.1c5,0,8.9,1.3,10.9,2.5L120,10.9z"/>
	<path id="base2" class="st0" d="M133.1,4.3h5.8v53.3h-5.8V4.3z"/>
	<path id="base3" class="st0" d="M188.9,55.5c-2.9,1.1-8.5,2.7-15.2,2.7c-20.9,0-25.9-15.6-25.9-26.9c0-16.2,10.6-27.5,27.3-27.5
		c5.1,0,9.7,1,12.3,2.2l-1.5,4.8c-2.6-1.2-5.9-2.2-10.9-2.2c-12.6,0-21.1,8.1-21.1,22.3c0,14.4,8.1,22.5,20.2,22.5
		c4.5,0,7.5-0.7,9-1.5V34.8h-10.8v-4.7h16.5V55.5z"/>
	<path id="base4" class="st0" d="M236.8,57.6H231l-17-28.1c-3.6-6-7-11.9-9.6-17.8l-0.3,0.1c0.5,6.8,0.6,13,0.6,22.3v23.5h-5.5V4.3
		h6.1l17.2,28.1c3.8,6.4,6.9,11.9,9.3,17.4l0.1-0.1c-0.6-7.4-0.7-13.8-0.7-22.2V4.3h5.5V57.6z"/>
	<path id="base5" class="st0" d="M288.8,10.9c-1.5-1-4.9-2.4-9.4-2.4c-7.4,0-10.2,4.6-10.2,8.4c0,5.2,3.2,7.9,10.4,10.9
		c8.6,3.6,13,8.1,13,15.7c0,8.5-6.2,15-17.6,15c-4.8,0-10.1-1.5-12.7-3.4l1.6-4.8c2.9,1.9,7.1,3.3,11.5,3.3c7.1,0,11.3-3.8,11.3-9.6
		c0-5.2-2.9-8.5-9.8-11.3c-8-3-13.5-7.7-13.5-15.1c0-8.1,6.6-14.1,16.3-14.1c5,0,8.9,1.3,10.9,2.5L288.8,10.9z"/>
	<path id="base6" class="st0" d="M344.5,30.5c0,18.8-10.5,28-23.1,28c-13.2,0-22.6-10.4-22.6-27.1c0-17.4,9.9-27.9,23.2-27.9
		C335.7,3.4,344.5,14.4,344.5,30.5z M304.9,31.2c0,11.3,5.9,22.4,16.7,22.4c11,0,16.8-10.7,16.8-22.9c0-10.7-5.2-22.5-16.7-22.5
		C310,8.3,304.9,19.9,304.9,31.2z"/>
	<path id="base7" class="st0" d="M390.1,36.2c0,16-8.3,22.3-18.9,22.3c-9.9,0-17.9-5.8-17.9-21.9V4.4h5.8v32.3
		c0,12.1,5.3,17,12.3,17c7.7,0,12.8-5.2,12.8-17V4.4h5.8V36.2z"/>
	<path id="base8" class="st0" d="M439.6,57.6h-5.8l-17-28.1c-3.6-6-7-11.9-9.6-17.8l-0.3,0.1c0.5,6.8,0.6,13,0.6,22.3v23.5H402V4.3
		h6.1l17.2,28.1c3.8,6.4,6.9,11.9,9.3,17.4l0.1-0.1c-0.6-7.4-0.7-13.8-0.7-22.2V4.3h5.5V57.6z"/>
	<path id="base9" class="st0" d="M451.5,5c3.9-0.6,8.5-1.1,13.4-1.1c21.4,0,27.6,12.7,27.6,25.8c0,8.5-2.2,15.7-7.3,20.9
		c-4.7,4.8-12.5,7.5-22.2,7.5c-4.4,0-8.2-0.1-11.5-0.6V5z M457.3,53c1.8,0.3,4.3,0.3,6.8,0.3c14.4,0,22.3-8.2,22.3-23.5
		c0-13.9-7.4-21.4-21.3-21.4c-3.4,0-6,0.4-7.8,0.7V53z"/>
	<path class="st0" d="M78.1,17.1c0,0-7.7-11.6-34.9-13.4S3.3,19.9,2.8,28.1s1.5,9.6,1.5,9.6h40.2c0,0,3.4,0,3.4,4.6
		s-3.8,4.4-3.8,4.4l-33.9,0c0,0,11.2,12.7,36.5,11.6s33.5-15.5,34.6-17.6c1.2-2.1,3.3-6.8,2-14.8H42.9c0,0-3.5-0.7-3.5-4.6
		s3.8-3.8,3.8-3.8L78.1,17.1z"/>
</g>
</svg>
